{"glyphs":{"0":{"ha":883,"x_min":43,"x_max":854,"o":"m 58 501 q 43 342 43 413 q 119 92 43 182 q 361 1 196 1 q 681 136 564 1 q 839 501 799 271 q 854 660 854 589 q 778 909 854 819 q 536 999 701 999 q 215 865 332 999 q 58 501 99 731 m 603 501 q 536 298 579 369 q 400 226 493 226 q 306 265 333 226 q 278 372 278 303 q 292 501 278 422 q 359 703 315 632 q 496 774 403 774 q 590 736 563 774 q 617 631 617 699 q 603 501 617 578 z "},"1":{"ha":494,"x_min":64,"x_max":499,"o":"m 64 760 l 101 982 l 499 982 l 326 0 l 76 0 l 211 760 l 64 760 z "},"2":{"ha":783,"x_min":-31,"x_max":785,"o":"m 0 189 q 370 456 226 331 q 532 683 514 582 q 536 721 536 704 q 450 804 536 804 q 363 766 396 804 q 315 644 329 728 l 83 644 q 165 847 104 767 q 312 966 226 928 q 493 1004 397 1004 q 713 939 640 1004 q 785 764 785 874 q 778 696 785 735 q 622 428 754 558 q 317 203 489 299 l 704 203 l 671 11 l -31 11 l 0 189 z "},"3":{"ha":797,"x_min":19,"x_max":792,"o":"m 506 1025 q 717 961 643 1025 q 792 793 792 897 q 786 739 792 775 q 711 595 771 650 q 574 525 651 540 l 572 518 q 683 442 642 494 q 725 308 725 390 q 719 244 725 274 q 606 60 700 129 q 357 -10 511 -10 q 107 64 194 -10 q 19 281 19 138 q 22 328 19 294 l 254 328 q 251 297 251 306 q 281 217 251 246 q 371 188 310 188 q 452 213 419 188 q 492 281 485 239 q 494 310 494 300 q 339 418 494 418 l 294 418 l 328 611 l 372 611 q 550 719 529 608 q 551 744 551 728 q 528 806 551 785 q 465 828 506 828 q 380 794 415 828 q 333 703 344 760 l 101 703 q 238 942 132 858 q 506 1025 343 1025 z "},"4":{"ha":894,"x_min":6,"x_max":864,"o":"m 6 181 l 40 379 l 597 994 l 853 994 l 746 388 l 864 388 l 826 181 l 710 181 l 678 0 l 438 0 l 469 181 l 6 181 m 583 719 l 283 388 l 525 388 l 583 719 z "},"5":{"ha":831,"x_min":53,"x_max":840,"o":"m 804 797 l 363 797 l 326 599 q 419 651 364 632 q 535 669 474 669 q 719 599 658 669 q 781 418 781 529 q 774 339 781 383 q 640 90 746 182 q 374 -3 535 -3 q 137 67 221 -3 q 53 257 53 138 q 57 311 53 282 l 289 311 q 313 233 286 264 q 397 203 340 203 q 495 241 458 203 q 543 343 532 279 q 547 381 547 364 q 519 456 547 429 q 440 483 492 483 q 362 463 397 483 q 310 411 326 443 l 78 411 l 183 1006 l 840 1006 l 804 797 z "},"6":{"ha":843,"x_min":57,"x_max":814,"o":"m 590 711 q 565 801 589 771 q 488 832 542 832 q 363 758 408 832 q 293 529 318 685 q 390 619 326 586 q 529 651 453 651 q 714 588 647 651 q 781 404 781 524 q 772 317 781 363 q 645 80 747 169 q 386 -10 543 -10 q 57 336 57 -10 q 75 514 57 413 q 227 899 121 775 q 525 1022 333 1022 q 744 947 675 1022 q 814 750 814 871 q 813 711 814 724 l 590 711 m 274 306 q 304 224 274 254 q 394 194 335 194 q 509 237 465 194 q 553 357 553 279 q 523 440 553 411 q 440 468 493 468 q 323 426 372 468 q 274 306 274 383 z "},"7":{"ha":683,"x_min":-8,"x_max":764,"o":"m 732 815 l 238 0 l -8 0 l 486 788 l 69 788 l 104 992 l 764 992 l 732 815 z "},"8":{"ha":864,"x_min":26,"x_max":849,"o":"m 136 775 q 199 901 149 842 q 337 998 250 961 q 539 1035 424 1035 q 710 1001 640 1035 q 815 914 781 968 q 849 794 849 860 q 844 747 849 771 q 665 544 821 607 q 801 331 801 479 q 796 267 801 296 q 651 54 771 129 q 351 -21 532 -21 q 117 49 208 -21 q 26 244 26 118 q 32 310 26 281 q 240 544 63 474 q 159 613 188 568 q 131 721 131 658 q 136 775 131 736 m 361 694 q 388 627 361 650 q 463 604 415 604 q 556 633 518 604 q 604 718 594 663 q 607 746 607 738 q 579 816 607 792 q 504 840 551 840 q 402 801 443 840 q 361 694 361 763 m 261 283 q 294 204 261 233 q 388 175 328 175 q 513 219 464 175 q 561 333 561 263 q 526 414 561 385 q 435 443 492 443 q 311 401 361 443 q 261 283 261 358 z "},"9":{"ha":804,"x_min":39,"x_max":801,"o":"m 265 301 q 365 181 263 181 q 492 254 446 181 q 561 483 538 328 q 465 394 529 428 q 326 361 401 361 q 141 425 208 361 q 74 608 74 489 q 82 696 74 650 q 213 933 107 843 q 479 1022 319 1022 q 727 937 653 1022 q 801 696 801 851 q 782 499 801 607 q 703 219 753 329 q 566 49 653 108 q 343 -10 479 -10 q 166 35 235 -10 q 68 149 97 79 q 43 301 39 219 l 265 301 m 581 710 q 551 789 581 760 q 461 818 521 818 q 357 783 399 818 q 304 682 315 749 q 301 647 301 669 q 332 571 301 597 q 415 544 363 544 q 531 588 482 544 q 581 710 581 631 z "},"\u0000":{"ha":0,"x_min":0,"x_max":0,"o":""},"\r":{"ha":278,"x_min":0,"x_max":0,"o":""}," ":{"ha":278,"x_min":0,"x_max":0,"o":""},"अ":{"ha":1164,"x_min":51,"x_max":1278,"o":"m 1278 1028 l 1247 846 l 1110 846 l 961 0 l 743 0 l 807 365 l 671 365 l 669 353 q 555 156 647 229 q 333 82 463 82 q 127 147 203 82 q 51 319 51 211 q 57 375 51 336 l 261 375 q 260 354 260 368 q 285 293 260 317 q 353 269 310 269 q 442 305 407 269 q 476 396 476 340 q 449 461 476 436 q 365 486 422 486 l 303 486 l 335 661 l 397 661 q 497 695 458 661 q 535 779 535 729 q 513 835 535 815 q 454 856 490 856 q 376 830 410 856 q 336 763 343 804 l 135 763 q 254 964 158 888 q 486 1040 350 1040 q 669 985 603 1040 q 736 836 736 931 q 732 788 736 813 q 671 658 718 713 q 549 581 624 604 l 549 576 q 613 544 586 567 l 840 544 l 924 1028 l 1278 1028 z "},"आ":{"ha":1606,"x_min":51,"x_max":1719,"o":"m 1278 1028 l 1247 846 l 1110 846 l 961 0 l 743 0 l 807 365 l 671 365 l 669 353 q 555 156 647 229 q 333 82 463 82 q 127 147 203 82 q 51 319 51 211 q 57 375 51 336 l 261 375 q 260 354 260 368 q 285 293 260 317 q 353 269 310 269 q 442 305 407 269 q 476 396 476 340 q 449 461 476 436 q 365 486 422 486 l 303 486 l 335 661 l 397 661 q 497 695 458 661 q 535 779 535 729 q 513 835 535 815 q 454 856 490 856 q 376 830 410 856 q 336 763 343 804 l 135 763 q 254 964 158 888 q 486 1040 350 1040 q 669 985 603 1040 q 736 836 736 931 q 732 788 736 813 q 671 658 718 713 q 549 581 624 604 l 549 576 q 613 544 586 567 l 840 544 l 924 1028 l 1278 1028 m 1333 846 l 1197 846 l 1229 1028 l 1719 1028 l 1688 846 l 1551 846 l 1404 0 l 1185 0 l 1333 846 z "},"इ":{"ha":813,"x_min":13,"x_max":933,"o":"m 721 846 l 703 746 l 675 590 l 418 590 q 344 572 375 590 q 314 511 314 553 q 389 463 314 463 l 449 463 q 626 413 556 463 q 697 258 697 363 q 692 203 697 229 q 600 37 672 99 q 417 -25 528 -25 q 309 -3 351 -25 q 247 47 267 19 l 218 -117 l 13 -117 l 74 240 l 269 240 q 292 164 265 192 q 372 136 319 136 q 457 165 426 136 q 488 238 488 194 q 381 308 488 308 q 293 311 326 308 q 153 360 211 315 q 94 490 94 406 q 99 535 94 513 q 197 694 117 643 q 390 746 278 746 l 492 746 l 510 846 l 39 846 l 71 1028 l 933 1028 l 901 846 l 721 846 z "},"ई":{"ha":803,"x_min":13,"x_max":1119,"o":"m 918 1133 q 922 1172 922 1154 q 907 1221 922 1204 q 864 1238 892 1238 q 798 1208 822 1238 q 764 1119 774 1179 l 747 1028 l 936 1028 l 904 846 l 722 846 l 696 700 l 694 700 l 675 590 l 418 590 q 344 572 375 590 q 314 511 314 553 q 389 463 314 463 l 449 463 q 626 413 556 463 q 697 258 697 363 q 692 203 697 229 q 600 37 672 99 q 417 -25 528 -25 q 309 -3 351 -25 q 247 47 267 19 l 218 -117 l 13 -117 l 74 240 l 269 240 q 292 164 265 192 q 372 136 319 136 q 457 165 426 136 q 488 238 488 194 q 381 308 488 308 q 293 311 326 308 q 153 361 211 315 q 94 492 94 407 q 99 535 94 513 q 197 694 117 643 q 390 746 278 746 l 493 746 l 511 846 l 42 846 l 74 1028 l 546 1028 l 563 1117 q 665 1332 586 1246 q 892 1418 743 1418 q 1060 1365 1001 1418 q 1119 1218 1119 1313 q 1108 1133 1119 1182 l 918 1133 z "},"उ":{"ha":785,"x_min":17,"x_max":899,"o":"m 867 846 l 746 846 l 731 763 q 672 625 717 679 q 567 557 626 571 l 565 554 q 657 485 624 536 q 690 361 690 433 q 686 307 690 336 q 562 88 661 171 q 315 6 463 6 q 98 74 179 6 q 17 261 17 142 q 24 331 17 292 l 232 331 q 229 303 229 311 q 259 228 229 257 q 339 200 289 200 q 433 235 394 200 q 483 325 472 269 q 486 351 486 342 q 458 426 486 397 q 374 454 431 454 l 290 454 l 324 644 l 375 644 q 472 677 432 644 q 522 774 511 710 l 535 846 l 35 846 l 67 1028 l 899 1028 l 867 846 z "},"ऊ":{"ha":1182,"x_min":17,"x_max":1296,"o":"m 731 763 q 672 625 717 679 q 567 557 626 571 l 567 554 l 814 554 q 1021 501 946 554 q 1096 340 1096 447 q 1090 281 1096 308 q 987 95 1069 164 q 781 26 904 26 q 700 35 742 26 l 729 199 l 772 197 q 844 220 814 197 q 883 289 874 243 q 885 308 885 296 q 858 363 885 344 q 786 382 832 382 l 685 382 q 686 354 686 374 q 681 294 686 322 q 616 147 665 213 q 489 43 567 81 q 315 6 411 6 q 98 74 179 6 q 17 261 17 142 q 24 331 17 292 l 232 331 q 229 303 229 311 q 259 228 229 257 q 339 200 289 200 q 433 235 394 200 q 483 325 472 269 q 486 351 486 342 q 458 426 486 397 q 374 454 431 454 l 290 454 l 324 644 l 375 644 q 472 677 432 644 q 522 774 511 710 l 535 846 l 35 846 l 67 1028 l 1296 1028 l 1264 846 l 746 846 l 731 763 z "},"ऋ":{"ha":1461,"x_min":35,"x_max":1575,"o":"m 922 846 l 883 626 l 1085 626 q 1150 643 1125 626 q 1183 690 1175 660 l 1194 753 l 1382 753 l 1296 267 l 1260 267 q 1160 233 1196 267 q 1125 149 1125 200 q 1155 92 1125 110 q 1236 74 1185 74 q 1317 83 1275 74 l 1286 -90 q 1176 -100 1233 -100 q 983 -47 1056 -100 q 910 101 910 6 q 914 149 910 124 q 986 296 929 236 q 1129 382 1043 356 l 1146 474 q 1022 454 1083 454 l 853 454 l 772 0 l 572 0 l 614 238 l 313 0 l 35 0 l 36 10 l 647 447 q 600 525 638 496 q 503 554 563 554 q 354 501 414 554 q 279 358 294 447 l 60 358 q 137 557 81 471 q 278 691 193 643 q 471 739 364 739 q 685 642 621 739 l 721 846 l 36 846 l 67 1028 l 1575 1028 l 1543 846 l 922 846 z "},"ॠ":{"ha":1464,"x_min":35,"x_max":1578,"o":"m 921 846 l 882 626 l 1085 626 q 1149 642 1124 626 q 1183 689 1174 658 l 1194 753 l 1382 753 l 1296 263 l 1246 263 q 1135 194 1147 263 q 1133 182 1133 190 q 1224 128 1133 128 l 1303 128 l 1275 -35 l 1206 -35 q 1081 -106 1094 -35 q 1079 -118 1079 -110 q 1183 -176 1079 -176 q 1264 -169 1224 -176 q 1329 -156 1304 -162 l 1301 -315 q 1218 -337 1268 -329 q 1121 -344 1168 -344 q 938 -301 1011 -344 q 864 -169 864 -258 q 913 -33 864 -90 q 1036 42 963 25 l 1038 46 q 925 172 925 72 q 928 206 925 181 q 997 323 942 282 q 1128 376 1053 364 l 1146 474 q 1021 454 1083 454 l 851 454 l 772 0 l 572 0 l 614 238 l 313 0 l 35 0 l 36 10 l 647 447 q 600 525 638 496 q 503 554 563 554 q 353 501 414 554 q 278 358 293 447 l 60 358 q 136 557 81 471 q 278 691 192 643 q 469 739 364 739 q 685 642 619 739 l 721 846 l 35 846 l 67 1028 l 1578 1028 l 1546 846 l 921 846 z "},"ऌ":{"ha":1258,"x_min":26,"x_max":1364,"o":"m 1046 846 l 1024 715 q 1126 628 1089 688 q 1164 479 1164 568 q 1157 401 1164 447 q 1110 263 1146 329 l 1100 263 q 939 161 956 263 q 938 144 938 156 q 970 88 938 107 q 1054 69 1003 69 q 1136 79 1099 69 l 1106 -94 q 994 -104 1053 -104 q 798 -51 871 -104 q 725 101 725 1 q 729 151 725 125 q 800 288 743 229 q 933 371 857 347 l 939 401 q 943 440 943 422 q 918 515 943 488 q 847 543 893 543 q 744 497 783 543 q 693 379 704 450 l 685 339 l 504 339 l 513 379 q 517 425 517 403 q 493 511 517 479 q 418 543 469 543 q 318 503 357 543 q 267 397 279 464 q 263 353 263 375 q 294 267 263 296 q 385 238 326 238 l 425 240 l 392 50 q 342 49 369 49 q 115 120 193 49 q 38 319 38 192 q 44 401 38 365 q 120 585 64 510 q 254 698 176 661 q 419 735 332 735 q 563 691 511 735 q 631 576 614 647 l 635 576 q 813 719 700 685 l 835 846 l 26 846 l 58 1028 l 1364 1028 l 1331 846 l 1046 846 z "},"ॡ":{"ha":1274,"x_min":28,"x_max":1378,"o":"m 1044 846 l 1022 715 q 1126 630 1088 689 q 1165 483 1165 571 q 1157 401 1165 446 q 1110 263 1143 331 l 1068 263 q 957 194 969 263 q 956 182 956 190 q 1047 128 956 128 l 1126 128 l 1099 -35 l 1029 -35 q 903 -106 917 -35 q 901 -118 901 -110 q 1007 -176 901 -176 q 1088 -169 1047 -176 q 1151 -156 1129 -162 l 1124 -315 q 1041 -337 1090 -329 q 944 -344 992 -344 q 760 -301 835 -344 q 686 -168 686 -258 q 735 -33 686 -90 q 858 42 785 25 l 860 46 q 747 172 747 72 q 750 206 747 181 q 815 317 764 276 q 933 374 865 358 l 939 401 q 943 440 943 422 q 918 515 943 488 q 847 543 893 543 q 742 497 783 543 q 692 379 701 450 l 685 339 l 504 339 l 511 379 q 515 426 515 404 q 492 511 515 479 q 418 543 469 543 q 317 503 357 543 q 265 397 276 464 q 261 354 261 375 q 294 267 261 296 q 385 238 326 238 l 424 240 l 390 50 q 342 49 369 49 q 115 120 193 49 q 38 319 38 192 q 44 401 38 365 q 119 585 64 510 q 253 698 175 661 q 418 735 332 735 q 563 691 510 735 q 631 576 615 647 l 635 576 q 813 719 700 685 l 833 846 l 28 846 l 60 1028 l 1378 1028 l 1346 846 l 1044 846 z "},"ए":{"ha":906,"x_min":33,"x_max":1019,"o":"m 986 846 l 867 846 l 847 736 q 748 514 821 590 q 540 438 675 438 q 467 443 501 438 l 500 639 q 528 638 510 638 q 636 742 618 638 l 654 846 l 389 846 l 304 365 q 300 325 300 344 q 330 241 300 269 q 413 213 360 213 q 508 247 469 213 q 557 340 547 281 l 769 340 q 646 108 744 190 q 396 26 547 26 q 163 100 244 26 q 81 300 81 174 q 88 374 81 329 l 171 846 l 33 846 l 65 1028 l 1019 1028 l 986 846 z "},"ऐ":{"ha":906,"x_min":35,"x_max":1021,"o":"m 988 846 l 868 846 l 849 736 q 749 514 822 590 q 542 438 676 438 q 468 443 503 438 l 501 639 q 529 638 511 638 q 638 742 619 638 l 656 846 l 390 846 l 306 365 q 301 325 301 344 q 331 241 301 269 q 414 213 361 213 q 510 247 471 213 q 558 340 549 281 l 771 340 q 647 108 746 190 q 397 26 549 26 q 164 100 246 26 q 82 300 82 174 q 89 374 82 329 l 172 846 l 35 846 l 67 1028 l 682 1028 q 614 1150 642 1113 q 551 1201 586 1188 q 453 1214 517 1214 l 379 1214 l 411 1389 l 481 1389 q 659 1364 596 1388 q 774 1265 722 1340 q 886 1028 825 1190 l 1021 1028 l 988 846 z "},"ओ":{"ha":1606,"x_min":51,"x_max":1719,"o":"m 1278 1028 l 1247 846 l 1110 846 l 961 0 l 743 0 l 807 365 l 671 365 l 669 353 q 555 156 647 229 q 333 82 463 82 q 127 147 203 82 q 51 319 51 211 q 57 375 51 336 l 261 375 q 260 354 260 368 q 285 293 260 317 q 353 269 310 269 q 442 305 407 269 q 476 396 476 340 q 449 461 476 436 q 365 486 422 486 l 303 486 l 335 661 l 397 661 q 497 695 458 661 q 535 779 535 729 q 513 835 535 815 q 454 856 490 856 q 376 830 410 856 q 336 763 343 804 l 135 763 q 254 964 158 888 q 486 1040 350 1040 q 669 985 603 1040 q 736 836 736 931 q 732 788 736 813 q 671 658 718 713 q 549 581 624 604 l 549 576 q 613 544 586 567 l 840 544 l 924 1028 l 1278 1028 m 1333 846 l 1197 846 l 1229 1028 l 1719 1028 l 1688 846 l 1551 846 l 1404 0 l 1185 0 l 1333 846 m 1400 1022 q 1331 1149 1358 1110 q 1268 1201 1303 1188 q 1168 1214 1233 1214 l 1096 1214 l 1125 1389 l 1194 1389 q 1375 1363 1311 1388 q 1490 1264 1439 1339 q 1604 1022 1540 1189 l 1400 1022 z "},"औ":{"ha":1606,"x_min":51,"x_max":1719,"o":"m 1278 1028 l 1247 846 l 1110 846 l 961 0 l 743 0 l 807 365 l 671 365 l 669 353 q 555 156 647 229 q 333 82 463 82 q 127 147 203 82 q 51 319 51 211 q 57 375 51 336 l 261 375 q 260 354 260 368 q 285 293 260 317 q 353 269 310 269 q 442 305 407 269 q 476 396 476 340 q 449 461 476 436 q 365 486 422 486 l 303 486 l 335 661 l 397 661 q 497 695 458 661 q 535 779 535 729 q 513 835 535 815 q 454 856 490 856 q 376 830 410 856 q 336 763 343 804 l 135 763 q 254 964 158 888 q 486 1040 350 1040 q 669 985 603 1040 q 736 836 736 931 q 732 788 736 813 q 671 658 718 713 q 549 581 624 604 l 549 576 q 613 544 586 567 l 840 544 l 924 1028 l 1278 1028 m 1333 846 l 1197 846 l 1229 1028 l 1719 1028 l 1688 846 l 1551 846 l 1404 0 l 1185 0 l 1333 846 m 1196 1489 q 1368 1464 1313 1489 q 1472 1347 1424 1439 q 1600 1024 1521 1254 l 1413 1024 l 1390 1040 q 1299 1099 1326 1085 q 1240 1118 1272 1114 q 1132 1122 1208 1122 l 1058 1122 l 1082 1258 l 1151 1258 q 1262 1254 1226 1258 q 1329 1234 1297 1250 q 1404 1179 1361 1218 q 1338 1297 1371 1260 q 1270 1342 1304 1333 q 1178 1351 1236 1351 l 1099 1351 l 1122 1489 l 1196 1489 z "},"ऍ":{"ha":907,"x_min":-3,"x_max":983,"o":"m 528 1139 q 312 1199 383 1139 q 240 1365 240 1260 q 247 1432 240 1393 l 433 1432 q 431 1403 431 1413 q 461 1327 431 1356 q 556 1299 492 1299 q 671 1336 628 1299 q 725 1432 714 1374 l 911 1432 q 791 1219 889 1299 q 528 1139 693 1139 m 950 846 l 831 846 l 811 736 q 712 514 785 590 q 504 438 639 438 q 431 443 465 438 l 464 639 q 492 638 474 638 q 600 742 582 638 l 618 846 l 353 846 l 268 365 q 264 325 264 344 q 294 241 264 269 q 376 213 324 213 q 472 247 433 213 q 521 340 511 281 l 733 340 q 610 108 708 190 q 360 26 511 26 q 126 100 208 26 q 44 300 44 174 q 51 374 44 329 l 135 846 l -3 846 l 29 1028 l 983 1028 l 950 846 z "},"ॲ":{"ha":1164,"x_min":51,"x_max":1481,"o":"m 1278 1028 l 1247 846 l 1110 846 l 961 0 l 743 0 l 807 365 l 671 365 l 669 353 q 555 156 647 229 q 333 82 463 82 q 127 147 203 82 q 51 319 51 211 q 57 375 51 336 l 261 375 q 260 354 260 368 q 285 293 260 317 q 353 269 310 269 q 442 305 407 269 q 476 396 476 340 q 449 461 476 436 q 365 486 422 486 l 303 486 l 335 661 l 397 661 q 497 695 458 661 q 535 779 535 729 q 513 835 535 815 q 454 856 490 856 q 376 830 410 856 q 336 763 343 804 l 135 763 q 254 964 158 888 q 486 1040 350 1040 q 669 985 603 1040 q 736 836 736 931 q 732 788 736 813 q 671 658 718 713 q 549 581 624 604 l 549 576 q 613 544 586 567 l 840 544 l 924 1028 l 1278 1028 m 1107 1144 q 885 1207 960 1144 q 810 1376 810 1269 q 815 1438 810 1410 l 1003 1438 q 1000 1408 1000 1418 q 1031 1333 1000 1361 q 1125 1306 1061 1306 q 1240 1342 1197 1306 q 1294 1438 1283 1379 l 1481 1438 q 1364 1224 1457 1303 q 1107 1144 1271 1144 z "},"ऑ":{"ha":1606,"x_min":51,"x_max":1719,"o":"m 1278 1028 l 1247 846 l 1110 846 l 961 0 l 743 0 l 807 365 l 671 365 l 669 353 q 555 156 647 229 q 333 82 463 82 q 127 147 203 82 q 51 319 51 211 q 57 375 51 336 l 261 375 q 260 354 260 368 q 285 293 260 317 q 353 269 310 269 q 442 305 407 269 q 476 396 476 340 q 449 461 476 436 q 365 486 422 486 l 303 486 l 335 661 l 397 661 q 497 695 458 661 q 535 779 535 729 q 513 835 535 815 q 454 856 490 856 q 376 830 410 856 q 336 763 343 804 l 135 763 q 254 964 158 888 q 486 1040 350 1040 q 669 985 603 1040 q 736 836 736 931 q 732 788 736 813 q 671 658 718 713 q 549 581 624 604 l 549 576 q 613 544 586 567 l 840 544 l 924 1028 l 1278 1028 m 1333 846 l 1197 846 l 1229 1028 l 1719 1028 l 1688 846 l 1551 846 l 1404 0 l 1185 0 l 1333 846 m 1319 1138 q 1097 1200 1172 1138 q 1022 1369 1022 1263 q 1028 1431 1022 1403 l 1215 1431 q 1213 1401 1213 1411 q 1243 1326 1213 1354 q 1338 1299 1274 1299 q 1453 1335 1410 1299 q 1507 1431 1496 1372 l 1693 1431 q 1576 1217 1669 1296 q 1319 1138 1483 1138 z "},"ा":{"ha":443,"x_min":22,"x_max":557,"o":"m 171 846 l 35 846 l 67 1028 l 557 1028 l 525 846 l 389 846 l 242 0 l 22 0 l 171 846 z "},"ि":{"ha":443,"x_min":21,"x_max":1364,"o":"m 854 1432 q 1127 1387 1013 1432 q 1303 1260 1242 1342 q 1364 1072 1364 1179 q 1358 1004 1364 1036 l 1354 979 l 1136 979 l 1139 1000 q 1142 1038 1142 1025 q 1051 1199 1142 1143 q 822 1254 960 1254 q 560 1198 674 1254 q 419 1028 447 1142 l 557 1028 l 525 846 l 389 846 l 240 0 l 21 0 l 171 846 l 35 846 l 67 1028 l 203 1028 q 321 1242 232 1150 q 547 1383 410 1333 q 854 1432 683 1432 z "},"ी":{"ha":443,"x_min":-249,"x_max":558,"o":"m 558 1028 l 526 846 l 390 846 l 240 0 l 22 0 l 172 846 l 36 846 l 68 1028 l 210 1028 l 219 1081 q 225 1142 225 1119 q 132 1249 225 1249 q 28 1200 61 1249 q -19 1081 -6 1151 l -37 981 l -249 981 l -233 1069 q -107 1335 -204 1238 q 165 1432 -10 1432 q 439 1178 439 1432 q 429 1069 439 1122 l 422 1028 l 558 1028 z "},"ु":{"ha":0,"x_min":-776,"x_max":-108,"o":"m -457 -472 q -684 -411 -592 -472 q -776 -222 -776 -350 q -768 -149 -776 -189 l -575 -149 q -581 -192 -581 -179 q -543 -274 -581 -247 q -442 -301 -506 -301 q -336 -270 -375 -301 q -297 -185 -297 -239 q -321 -131 -297 -151 q -390 -110 -344 -110 l -440 -110 l -410 60 l -361 60 q -175 1 -242 60 q -108 -161 -108 -58 q -111 -206 -108 -190 q -220 -401 -126 -329 q -457 -472 -314 -472 z "},"ू":{"ha":0,"x_min":-658,"x_max":-3,"o":"m -419 -451 q -588 -399 -518 -451 q -658 -249 -658 -346 q -654 -200 -658 -225 q -544 -13 -633 -79 q -322 53 -454 53 q -83 -38 -162 53 q -3 -271 -3 -129 q -11 -365 -3 -318 q -19 -408 -14 -385 q -28 -443 -25 -432 l -204 -443 l -189 -356 q -182 -283 -182 -314 q -222 -156 -182 -203 q -340 -110 -261 -110 q -440 -139 -399 -110 q -482 -222 -482 -168 q -456 -277 -482 -258 q -389 -296 -429 -296 q -353 -294 -365 -296 l -379 -450 q -419 -451 -393 -451 z "},"ृ":{"ha":0,"x_min":-625,"x_max":-176,"o":"m -361 -467 q -487 -442 -426 -467 q -586 -365 -547 -417 q -625 -240 -625 -314 q -621 -189 -625 -217 q -508 -9 -600 -74 q -274 56 -417 56 l -193 54 l -219 -94 l -281 -94 q -368 -118 -335 -94 q -410 -186 -401 -142 q -411 -204 -411 -193 q -378 -270 -411 -247 q -296 -293 -344 -293 q -176 -275 -242 -293 l -207 -444 q -361 -467 -279 -467 z "},"ॄ":{"ha":0,"x_min":-625,"x_max":-158,"o":"m -367 -668 q -551 -625 -476 -668 q -625 -493 -625 -582 q -576 -358 -625 -414 q -451 -285 -526 -301 l -451 -279 q -564 -154 -564 -251 q -561 -121 -564 -143 q -469 13 -544 -29 q -306 56 -393 56 l -193 56 l -214 -62 l -242 -62 q -353 -131 -340 -62 q -354 -144 -354 -135 q -329 -185 -354 -172 q -264 -199 -304 -199 l -183 -199 l -211 -358 l -281 -358 q -407 -429 -396 -358 q -408 -442 -408 -433 q -303 -500 -408 -500 q -222 -493 -262 -500 q -158 -479 -181 -486 l -187 -642 q -271 -661 -221 -654 q -367 -668 -321 -668 z "},"ॢ":{"ha":0,"x_min":-786,"x_max":67,"o":"m 19 -387 q -104 -461 -92 -387 q -106 -472 -106 -465 q -82 -515 -106 -500 q -19 -529 -58 -529 q 43 -521 14 -529 l 19 -656 q -65 -662 -26 -662 q -215 -622 -160 -662 q -271 -507 -271 -582 q -226 -380 -271 -435 q -115 -303 -182 -325 l -111 -283 q -108 -254 -108 -264 q -126 -199 -108 -219 q -178 -179 -144 -179 q -251 -212 -224 -179 q -289 -299 -278 -246 l -294 -329 l -436 -329 l -431 -299 q -426 -260 -426 -278 q -444 -201 -426 -224 q -497 -179 -461 -179 q -581 -217 -550 -179 q -612 -317 -612 -256 q -589 -381 -612 -360 q -522 -401 -565 -401 q -493 -399 -503 -401 l -521 -547 l -556 -547 q -727 -493 -668 -547 q -786 -344 -786 -439 q -781 -283 -786 -311 q -724 -144 -767 -201 q -622 -59 -681 -87 q -497 -31 -562 -31 q -389 -63 -428 -31 q -339 -149 -350 -96 l -335 -149 q -249 -63 -303 -96 q -125 -31 -196 -31 q 13 -80 -42 -31 q 67 -222 67 -129 q 61 -283 67 -254 q 28 -387 54 -333 l 19 -387 z "},"ॣ":{"ha":0,"x_min":-786,"x_max":68,"o":"m -8 -387 q -90 -436 -82 -387 q -21 -485 -97 -485 l 36 -485 l 14 -610 l -36 -610 q -101 -621 -76 -610 q -132 -664 -126 -632 q -53 -712 -140 -712 q 7 -708 -24 -712 q 56 -697 38 -703 l 32 -822 q -30 -837 7 -832 q -103 -842 -67 -842 q -241 -810 -186 -842 q -296 -712 -296 -779 q -259 -607 -296 -650 q -167 -553 -222 -564 l -167 -550 q -227 -515 -204 -540 q -250 -450 -250 -490 q -210 -349 -250 -386 q -114 -300 -171 -312 l -110 -283 q -107 -256 -107 -264 q -125 -200 -107 -221 q -178 -179 -143 -179 q -251 -213 -224 -179 q -287 -299 -278 -247 l -293 -329 l -435 -329 l -429 -299 q -425 -261 -425 -281 q -442 -201 -425 -224 q -497 -179 -460 -179 q -581 -217 -549 -179 q -612 -317 -612 -256 q -588 -381 -612 -360 q -521 -401 -564 -401 q -493 -399 -503 -401 l -519 -547 l -554 -547 q -726 -493 -667 -547 q -786 -343 -786 -439 q -781 -283 -786 -311 q -678 -96 -758 -161 q -497 -31 -597 -31 q -389 -63 -428 -31 q -337 -149 -350 -96 l -333 -149 q -250 -63 -303 -96 q -125 -31 -197 -31 q 13 -81 -42 -31 q 68 -224 68 -131 q 63 -283 68 -254 q 28 -387 53 -335 l -8 -387 z "},"े":{"ha":0,"x_min":-533,"x_max":-25,"o":"m -229 1022 q -299 1149 -271 1110 q -361 1201 -326 1188 q -461 1214 -396 1214 l -533 1214 l -504 1389 l -435 1389 q -254 1363 -318 1388 q -140 1264 -190 1339 q -25 1022 -89 1189 l -229 1022 z "},"ै":{"ha":0,"x_min":-574,"x_max":-32,"o":"m -436 1489 q -264 1464 -319 1489 q -160 1347 -208 1439 q -32 1024 -111 1254 l -219 1024 l -242 1040 q -333 1099 -306 1085 q -392 1118 -360 1114 q -500 1122 -424 1122 l -574 1122 l -550 1258 l -481 1258 q -370 1254 -406 1258 q -303 1234 -335 1250 q -228 1179 -271 1218 q -294 1297 -261 1260 q -362 1342 -328 1333 q -454 1351 -396 1351 l -533 1351 l -510 1489 l -436 1489 z "},"ो":{"ha":444,"x_min":-90,"x_max":558,"o":"m 558 1028 l 526 846 l 390 846 l 242 0 l 24 0 l 172 846 l 36 846 l 68 1028 l 213 1028 q 144 1150 172 1113 q 81 1201 117 1188 q -18 1214 46 1214 l -90 1214 l -58 1389 l 11 1389 q 190 1364 126 1388 q 304 1265 253 1340 q 417 1028 356 1190 l 558 1028 z "},"ौ":{"ha":443,"x_min":-171,"x_max":517,"o":"m 517 1028 l 485 846 l 349 846 l 200 0 l -18 0 l 131 846 l -7 846 l 26 1028 l 179 1028 q 74 1097 101 1082 q 15 1117 47 1113 q -97 1122 -18 1122 l -171 1122 l -147 1258 l -78 1258 q 33 1254 -3 1258 q 100 1234 68 1250 q 175 1179 132 1218 q 109 1297 142 1260 q 42 1342 76 1333 q -51 1351 8 1351 l -131 1351 l -107 1489 l -33 1489 q 139 1464 83 1489 q 243 1347 194 1439 q 369 1028 292 1256 l 517 1028 z "},"ॅ":{"ha":0,"x_min":-401,"x_max":269,"o":"m -104 1126 q -326 1189 -251 1126 q -401 1358 -401 1251 q -396 1419 -401 1392 l -208 1419 q -211 1390 -211 1400 q -181 1315 -211 1343 q -86 1288 -150 1288 q 29 1324 -14 1288 q 83 1419 72 1361 l 269 1419 q 153 1206 246 1285 q -104 1126 60 1126 z "},"ॉ":{"ha":446,"x_min":22,"x_max":714,"o":"m 340 1126 q 118 1189 193 1126 q 43 1358 43 1251 q 49 1419 43 1392 l 236 1419 q 233 1390 233 1400 q 264 1315 233 1343 q 358 1288 294 1288 q 474 1324 431 1288 q 528 1419 517 1361 l 714 1419 q 597 1206 690 1285 q 340 1126 504 1126 m 171 846 l 35 846 l 67 1028 l 557 1028 l 525 846 l 389 846 l 242 0 l 22 0 l 171 846 z "},"क":{"ha":1340,"x_min":35,"x_max":1454,"o":"m 844 846 l 810 644 q 899 713 846 689 q 1017 738 951 738 q 1192 666 1128 738 q 1256 482 1256 594 q 1249 410 1256 451 q 1128 183 1221 263 q 908 103 1035 103 q 815 114 858 103 l 846 285 q 881 281 858 281 q 976 317 935 281 q 1029 414 1018 353 q 1032 440 1032 433 q 1003 520 1032 489 q 924 551 974 551 q 822 512 863 551 q 768 410 782 472 l 696 0 l 486 0 l 519 188 q 296 89 436 89 q 118 160 186 89 q 50 349 50 232 q 57 419 50 378 q 176 651 82 564 q 407 738 271 738 q 526 712 478 738 q 599 640 575 686 l 635 846 l 35 846 l 67 1028 l 1454 1028 l 1422 846 l 844 846 m 560 418 q 561 438 561 425 q 531 520 561 488 q 443 553 500 553 q 324 505 374 553 q 275 385 275 457 q 308 303 275 333 q 394 272 340 272 q 503 313 460 274 q 557 406 547 353 l 560 418 z "},"ख":{"ha":1335,"x_min":36,"x_max":1449,"o":"m 1449 1028 l 1417 846 l 1281 846 l 1132 0 l 915 0 l 954 221 q 778 154 885 154 q 736 158 756 154 q 585 36 674 82 q 390 -10 496 -10 q 148 68 235 -10 q 61 289 61 146 q 69 383 61 333 l 100 560 l 135 560 q 283 603 229 560 q 354 740 338 646 l 372 846 l 36 846 l 68 1028 l 1449 1028 m 1064 846 l 592 846 l 568 710 q 470 498 544 575 q 290 408 396 421 l 281 358 q 276 319 276 338 q 316 217 276 256 q 429 179 356 179 q 599 256 535 179 q 565 397 565 317 q 571 464 565 432 q 626 601 583 542 q 731 694 668 661 q 865 726 793 726 q 1031 657 982 726 l 1064 846 m 856 321 q 956 365 917 321 q 994 467 994 410 q 969 534 994 507 q 896 561 944 561 q 796 522 838 561 q 754 417 754 482 q 783 346 754 371 q 856 321 811 321 z "},"ग":{"ha":1132,"x_min":35,"x_max":1246,"o":"m 1246 1028 l 1214 846 l 1078 846 l 929 0 l 711 0 l 858 846 l 685 846 l 629 532 q 524 317 607 399 q 300 236 442 236 q 114 294 182 236 q 46 457 46 351 q 51 521 46 492 q 61 567 57 551 l 272 567 l 264 522 q 261 488 261 510 q 319 421 261 421 q 410 524 392 421 l 467 846 l 35 846 l 67 1028 l 1246 1028 z "},"घ":{"ha":971,"x_min":35,"x_max":1085,"o":"m 1051 846 l 918 846 l 769 0 l 550 0 l 592 238 q 471 158 540 186 q 324 131 401 131 q 138 187 211 131 q 64 340 64 243 q 68 385 64 363 q 135 514 82 461 q 253 585 188 567 l 253 589 q 150 732 150 618 q 154 781 150 754 l 167 846 l 35 846 l 67 1028 l 1085 1028 l 1051 846 m 699 846 l 385 846 l 375 792 q 372 760 372 769 q 479 676 372 676 l 535 676 l 504 501 l 432 501 q 329 469 365 501 q 293 388 293 438 q 324 328 293 349 q 408 308 356 308 q 557 360 492 308 q 636 494 622 411 l 699 846 z "},"ङ":{"ha":976,"x_min":22,"x_max":1090,"o":"m 1090 1028 l 1060 846 l 718 846 l 700 743 l 674 590 l 417 590 q 343 572 374 590 q 313 513 313 554 q 333 474 313 486 q 386 463 353 463 l 447 463 q 626 413 556 463 q 697 265 697 363 q 692 213 697 249 q 583 35 671 99 q 344 -28 494 -28 q 112 34 201 -28 q 22 204 22 96 q 25 240 22 215 l 242 240 l 240 225 q 272 159 240 182 q 357 136 304 136 q 451 165 415 136 q 486 239 486 193 q 381 308 486 308 l 332 308 q 167 351 242 308 q 93 489 93 393 q 97 533 93 511 q 196 690 115 638 q 388 743 276 743 l 489 743 l 507 846 l 38 846 l 69 1028 l 1090 1028 m 868 626 q 937 600 910 626 q 964 533 964 574 q 923 440 964 479 q 828 400 882 400 q 759 426 786 400 q 732 493 732 453 q 773 587 732 547 q 868 626 814 626 z "},"च":{"ha":1046,"x_min":35,"x_max":1160,"o":"m 1128 846 l 993 846 l 843 0 l 625 0 l 664 222 q 548 143 615 171 q 403 115 481 115 q 227 171 294 115 q 160 324 160 226 q 165 378 160 351 q 261 540 182 479 l 75 540 l 104 713 l 618 713 l 588 540 l 531 540 q 429 507 472 540 q 376 418 386 474 q 374 394 374 401 q 408 322 374 347 q 497 296 443 296 q 637 351 581 296 q 714 500 693 407 l 775 846 l 35 846 l 67 1028 l 1160 1028 l 1128 846 z "},"छ":{"ha":1142,"x_min":33,"x_max":1256,"o":"m 963 846 l 943 733 q 1044 656 1008 710 q 1079 521 1079 601 q 1072 451 1079 493 q 970 228 1050 324 q 762 80 890 132 q 469 28 633 28 q 251 60 346 28 q 102 153 156 92 q 49 296 49 214 q 54 349 49 325 q 119 477 69 426 q 242 551 168 528 l 242 556 q 167 603 194 568 q 140 697 140 638 q 144 747 140 721 l 163 846 l 33 846 l 65 1028 l 1256 1028 l 1224 846 l 963 846 m 761 846 l 381 846 l 365 757 q 363 724 363 744 q 456 643 363 643 l 485 643 l 453 468 l 429 468 q 316 429 357 468 q 275 333 275 390 q 331 244 275 275 q 504 214 388 214 q 763 278 665 214 q 882 463 860 342 q 886 500 886 483 q 867 565 886 540 q 817 589 849 589 q 749 560 779 589 q 710 479 719 532 q 706 426 706 454 q 708 372 706 408 l 529 372 q 526 424 526 403 q 533 503 526 468 q 606 653 550 596 q 742 735 661 711 l 761 846 z "},"ज":{"ha":1194,"x_min":35,"x_max":1308,"o":"m 1276 846 l 1140 846 l 992 0 l 774 0 l 860 492 l 700 492 l 693 450 q 572 225 668 311 q 331 139 475 139 q 130 208 204 139 q 56 392 56 276 q 63 458 56 419 l 101 678 l 321 678 l 282 457 q 278 417 278 436 q 299 352 278 375 q 358 329 319 329 q 438 363 406 329 q 481 457 469 397 l 521 678 l 893 678 l 922 846 l 35 846 l 67 1028 l 1308 1028 l 1276 846 z "},"झ":{"ha":1218,"x_min":15,"x_max":1332,"o":"m 1300 846 l 1164 846 l 1015 0 l 800 0 l 853 299 l 678 299 q 686 239 686 272 q 682 190 686 215 q 594 38 665 97 q 417 -21 524 -21 q 314 0 356 -21 q 250 46 272 21 l 221 -118 l 15 -118 l 78 235 l 274 235 q 296 165 269 192 q 375 139 322 139 q 458 167 429 139 q 488 236 488 194 q 460 290 488 271 q 381 308 433 308 q 294 311 326 308 q 151 360 210 315 q 93 493 93 406 q 97 540 93 515 q 196 696 115 646 q 390 746 276 746 l 492 746 l 510 846 l 46 846 l 78 1028 l 1332 1028 l 1300 846 m 949 846 l 721 846 l 703 746 l 675 590 l 418 590 q 344 572 375 590 q 314 511 314 553 q 389 463 314 463 l 449 463 l 882 463 l 949 846 z "},"ञ":{"ha":1160,"x_min":35,"x_max":1274,"o":"m 1242 846 l 1107 846 l 958 0 l 739 0 l 796 325 l 685 325 q 544 142 640 208 q 321 75 447 75 q 117 139 193 75 q 42 314 42 203 q 43 346 42 335 l 250 346 q 282 282 254 306 q 354 258 310 258 q 469 313 425 258 q 513 444 513 368 q 486 526 513 494 q 408 557 460 557 q 326 533 364 557 q 271 469 289 510 l 65 469 q 198 668 96 594 q 439 742 300 742 q 633 679 560 742 q 713 508 706 617 l 828 508 l 888 846 l 35 846 l 67 1028 l 1274 1028 l 1242 846 z "},"ट":{"ha":896,"x_min":33,"x_max":1010,"o":"m 496 557 q 346 512 410 557 q 267 382 282 467 q 264 349 264 371 q 304 253 264 289 q 415 217 344 217 q 554 265 497 217 q 625 393 611 314 l 833 393 q 754 201 814 283 q 601 73 694 118 q 392 28 508 28 q 210 65 289 28 q 87 169 131 101 q 43 325 43 236 q 49 390 43 361 q 198 647 76 556 q 504 740 319 738 l 522 846 l 33 846 l 65 1028 l 1010 1028 l 976 846 l 736 846 l 686 557 l 496 557 z "},"ठ":{"ha":929,"x_min":32,"x_max":1043,"o":"m 628 846 l 607 736 q 776 635 711 708 q 840 453 840 563 q 835 386 840 418 q 751 201 815 279 q 593 82 688 122 q 388 42 499 42 q 213 78 292 42 q 90 181 135 114 q 44 339 44 249 q 50 406 44 374 q 167 630 74 544 q 393 740 261 715 l 413 846 l 32 846 l 64 1028 l 1043 1028 l 1011 846 l 628 846 m 618 394 q 621 431 621 407 q 581 529 621 492 q 472 567 542 567 q 338 519 394 567 q 267 397 281 472 q 264 361 264 385 q 303 262 264 300 q 411 224 343 224 q 547 272 490 224 q 618 394 604 319 z "},"ड":{"ha":788,"x_min":22,"x_max":901,"o":"m 417 590 q 343 572 374 590 q 313 513 313 554 q 333 474 313 486 q 386 463 353 463 l 447 463 q 626 413 556 463 q 697 265 697 363 q 692 213 697 249 q 583 35 671 99 q 344 -28 494 -28 q 112 34 201 -28 q 22 204 22 96 q 25 240 22 215 l 242 240 l 240 225 q 272 159 240 182 q 357 136 304 136 q 451 165 415 136 q 486 239 486 193 q 381 308 486 308 l 332 308 q 167 351 242 308 q 93 489 93 393 q 97 533 93 511 q 196 690 115 638 q 388 743 276 743 l 486 743 l 504 846 l 38 846 l 69 1028 l 901 1028 l 871 846 l 715 846 l 669 590 l 417 590 z "},"ढ":{"ha":911,"x_min":36,"x_max":1025,"o":"m 564 601 q 365 541 449 601 q 261 369 281 481 q 256 319 256 333 q 308 192 256 240 q 461 144 360 144 q 596 178 540 144 q 661 271 651 211 q 663 288 663 276 q 645 333 663 315 q 600 350 628 350 q 547 332 569 350 q 519 285 525 314 q 517 260 517 276 l 363 260 q 367 313 363 290 q 456 453 382 403 q 636 504 529 504 q 791 451 732 504 q 850 310 850 399 q 846 264 850 289 q 715 61 822 135 q 439 -12 608 -12 q 235 28 324 -12 q 97 143 146 68 q 47 318 47 218 q 53 389 47 356 q 140 586 74 504 q 306 710 207 668 q 519 751 404 751 l 546 751 l 563 846 l 36 846 l 68 1028 l 1025 1028 l 993 846 l 768 846 l 725 601 l 564 601 z "},"ण":{"ha":1244,"x_min":35,"x_max":1358,"o":"m 1326 846 l 1190 846 l 1042 0 l 822 0 l 972 846 l 786 846 l 726 507 q 615 285 703 369 q 385 201 528 201 q 181 268 256 201 q 106 447 106 335 q 111 507 106 479 l 172 846 l 35 846 l 67 1028 l 1358 1028 l 1326 846 m 572 846 l 385 846 l 322 488 q 319 463 319 471 q 340 406 319 426 q 397 385 361 385 q 471 413 442 385 q 508 488 500 440 l 572 846 z "},"त":{"ha":983,"x_min":35,"x_max":1097,"o":"m 1065 846 l 928 846 l 781 0 l 563 0 l 649 496 l 476 496 q 334 454 392 496 q 263 336 276 413 q 260 299 260 324 q 297 207 260 240 q 408 174 335 174 l 433 174 l 404 1 l 365 1 q 201 32 276 1 q 82 126 126 63 q 38 281 38 189 q 43 346 38 314 q 197 600 72 517 q 499 683 322 683 l 682 683 l 710 846 l 35 846 l 67 1028 l 1097 1028 l 1065 846 z "},"थ":{"ha":1101,"x_min":67,"x_max":1215,"o":"m 1215 1028 l 1185 846 l 1049 846 l 899 0 l 681 0 l 726 264 q 597 158 683 201 q 404 115 511 115 q 158 197 249 115 q 67 422 67 279 q 75 510 67 464 q 99 610 85 567 l 219 610 q 415 644 340 610 q 504 764 489 679 q 506 785 506 771 q 488 835 506 815 q 436 854 469 854 q 355 812 383 854 q 329 710 326 769 l 132 710 q 176 876 135 800 q 294 996 218 951 q 471 1040 369 1040 q 648 981 582 1040 q 714 818 714 921 q 708 757 714 785 q 573 536 683 618 q 281 454 463 454 l 278 454 q 319 341 272 386 q 467 296 365 296 q 608 329 542 296 q 720 427 674 363 q 782 582 767 492 l 861 1028 l 1215 1028 z "},"द":{"ha":854,"x_min":39,"x_max":968,"o":"m 476 549 q 347 510 400 549 q 282 401 294 471 q 279 369 279 379 q 310 292 279 321 q 393 263 340 263 q 488 297 446 263 q 540 390 531 331 l 743 390 l 667 -46 l 453 -46 l 489 160 q 406 108 454 126 q 300 90 357 90 q 176 119 232 90 q 86 206 119 149 q 53 343 53 263 q 60 417 53 372 q 204 654 88 572 q 488 736 321 736 l 539 736 l 558 846 l 39 846 l 71 1028 l 968 1028 l 935 846 l 778 846 l 725 549 l 476 549 z "},"ध":{"ha":1025,"x_min":67,"x_max":1139,"o":"m 1108 846 l 976 846 l 828 0 l 608 0 l 650 232 q 515 140 594 172 q 339 108 436 108 q 144 163 221 108 q 67 315 67 218 q 71 361 67 339 q 143 494 86 444 q 267 560 200 544 l 267 565 q 172 632 210 583 q 133 753 133 681 q 138 803 133 776 q 234 977 156 914 q 426 1040 313 1040 q 592 990 533 1040 q 651 847 651 939 q 636 749 651 799 l 475 749 q 481 786 481 774 q 464 838 481 818 q 413 858 447 858 q 343 826 371 858 q 315 744 315 793 q 349 676 315 699 q 440 654 383 654 l 556 654 l 524 479 l 451 479 q 338 451 381 479 q 296 368 296 422 q 331 308 296 329 q 426 286 367 286 q 607 353 532 286 q 701 526 682 419 l 760 857 l 789 1028 l 1139 1028 l 1108 846 z "},"न":{"ha":1143,"x_min":35,"x_max":1257,"o":"m 1225 846 l 1090 846 l 940 0 l 722 0 l 811 508 l 633 508 q 651 419 651 468 q 646 364 651 390 q 583 219 632 279 q 465 127 535 158 q 319 96 396 96 q 176 128 239 96 q 77 218 113 160 q 42 350 42 276 q 47 406 42 367 q 175 617 72 546 q 424 689 278 689 l 843 689 l 871 846 l 35 846 l 67 1028 l 1257 1028 l 1225 846 m 478 394 q 479 417 479 401 q 453 482 479 457 q 383 507 428 507 q 283 467 325 507 q 242 369 242 428 q 269 305 242 329 q 343 281 296 281 q 431 313 393 281 q 478 394 468 344 z "},"प":{"ha":940,"x_min":35,"x_max":1054,"o":"m 1022 846 l 886 846 l 739 0 l 519 0 l 572 297 q 368 222 490 222 q 168 297 239 222 q 97 494 97 371 q 106 581 97 538 l 153 846 l 35 846 l 67 1028 l 1054 1028 l 1022 846 m 668 846 l 371 846 l 324 581 q 319 533 319 556 q 351 440 319 474 q 449 406 383 406 q 558 446 515 406 q 617 551 601 486 l 668 846 z "},"फ":{"ha":1368,"x_min":35,"x_max":1482,"o":"m 863 846 l 828 642 q 926 713 868 688 q 1056 738 985 738 q 1226 671 1165 738 q 1288 496 1288 604 q 1281 425 1288 467 q 1213 252 1263 325 q 1092 141 1164 179 q 938 103 1021 103 q 838 117 881 103 l 867 285 q 910 279 885 279 q 1006 317 967 279 q 1057 414 1046 354 q 1060 444 1060 433 q 1031 522 1060 492 q 953 551 1003 551 q 846 510 889 551 q 785 399 803 468 l 715 0 l 496 0 l 547 294 q 354 222 471 222 q 164 294 232 222 q 96 485 96 365 q 104 569 96 526 l 153 846 l 35 846 l 67 1028 l 1482 1028 l 1449 846 l 863 846 m 644 846 l 371 846 l 322 569 q 318 522 318 544 q 347 437 318 468 q 435 406 376 406 q 542 450 500 406 q 594 561 585 494 l 644 846 z "},"ब":{"ha":956,"x_min":35,"x_max":1069,"o":"m 1069 1028 l 1038 846 l 901 846 l 753 0 l 543 0 l 575 176 q 470 107 532 132 q 336 82 408 82 q 188 118 251 82 q 89 218 124 154 q 54 365 54 282 q 60 433 54 401 q 131 602 76 531 q 269 713 186 674 q 451 751 351 751 q 574 729 521 751 q 660 667 626 707 l 692 846 l 35 846 l 67 1028 l 1069 1028 m 474 613 q 344 574 403 613 l 601 347 q 631 424 624 382 q 633 458 633 446 q 591 569 633 525 q 474 613 549 613 m 249 422 q 246 385 246 410 q 291 277 246 317 q 408 238 336 238 q 535 276 478 238 l 276 501 q 249 422 254 464 z "},"भ":{"ha":1183,"x_min":44,"x_max":1297,"o":"m 1297 1028 l 1267 846 l 1129 846 l 979 0 l 761 0 l 843 467 l 672 467 l 661 401 q 543 169 635 253 q 307 85 451 85 q 115 145 185 85 q 44 310 44 206 q 50 367 44 340 q 175 574 74 503 q 413 646 276 646 l 500 646 l 518 750 q 522 786 522 769 q 461 854 522 854 q 401 830 426 854 q 369 765 376 806 q 367 721 365 742 l 149 721 l 149 733 q 151 774 149 746 q 259 966 172 892 q 483 1040 346 1040 q 724 808 724 1040 q 714 710 724 758 l 703 646 l 875 646 l 942 1028 l 1297 1028 m 468 467 l 388 467 q 290 435 329 467 q 251 347 251 403 q 274 290 251 310 q 335 269 297 269 q 414 302 383 269 q 454 390 444 335 l 468 467 z "},"म":{"ha":1171,"x_min":25,"x_max":1285,"o":"m 1253 846 l 1117 846 l 968 0 l 749 0 l 831 467 l 651 467 l 640 401 q 522 169 614 253 q 286 85 431 85 q 95 146 165 85 q 25 310 25 207 q 31 367 25 340 q 155 574 54 503 q 392 646 256 646 l 479 646 l 515 846 l 35 846 l 67 1028 l 1285 1028 l 1253 846 m 897 846 l 719 846 l 683 646 l 863 646 l 897 846 m 449 467 l 367 467 q 269 435 308 467 q 231 346 231 403 q 255 290 231 310 q 315 269 279 269 q 394 302 364 269 q 435 390 425 335 l 449 467 z "},"य":{"ha":1051,"x_min":35,"x_max":1165,"o":"m 1133 846 l 997 846 l 849 0 l 629 0 l 667 214 q 549 140 617 167 q 399 114 481 114 q 156 197 244 114 q 67 422 67 281 q 75 506 67 463 q 96 589 83 547 l 110 589 q 277 638 222 589 q 350 783 332 688 l 361 846 l 35 846 l 67 1028 l 1165 1028 l 1133 846 m 779 846 l 575 846 l 557 743 q 472 561 539 631 q 286 478 406 492 q 283 446 283 456 q 331 337 283 378 q 464 296 378 296 q 635 358 565 296 q 721 519 704 421 l 779 846 z "},"र":{"ha":739,"x_min":36,"x_max":853,"o":"m 821 846 l 703 846 l 690 774 q 293 417 628 417 l 288 417 l 264 278 q 260 246 260 261 q 278 193 260 213 q 331 174 296 174 q 396 201 369 174 q 431 272 422 228 l 436 311 l 644 311 l 642 281 q 533 66 618 144 q 314 -12 449 -12 q 115 54 186 -12 q 43 228 43 121 q 49 289 43 261 l 101 592 l 242 592 q 402 638 349 592 q 472 774 456 683 l 485 846 l 36 846 l 68 1028 l 853 1028 l 821 846 z "},"ल":{"ha":1267,"x_min":32,"x_max":1381,"o":"m 1079 846 l 1053 696 q 1144 602 1111 663 q 1178 458 1178 542 q 1171 381 1178 415 q 1032 131 1143 224 q 750 42 921 38 l 701 44 l 736 233 q 772 231 753 231 q 888 274 840 231 q 949 390 936 317 q 953 429 953 411 q 926 507 953 478 q 851 536 900 536 q 749 490 788 536 q 696 372 710 444 l 690 339 l 510 339 l 515 372 q 521 424 521 408 q 497 506 521 475 q 421 536 472 536 q 321 497 360 536 q 269 390 282 457 q 267 353 267 376 q 299 263 267 294 q 394 231 332 231 q 428 233 406 231 l 394 43 q 353 42 376 42 q 124 119 204 42 q 43 322 43 196 q 51 403 43 361 q 181 646 79 564 q 417 728 283 728 q 565 683 510 728 q 636 569 619 639 l 640 569 q 724 666 672 626 q 843 719 775 706 l 865 846 l 32 846 l 64 1028 l 1381 1028 l 1347 846 l 1079 846 z "},"व":{"ha":926,"x_min":35,"x_max":1040,"o":"m 1040 1028 l 1008 846 l 872 846 l 724 0 l 511 0 l 543 183 q 444 111 501 136 q 318 86 386 86 q 125 158 196 86 q 54 351 54 229 q 63 438 54 392 q 181 660 86 578 q 415 743 276 743 q 540 718 486 743 q 625 649 593 693 l 660 846 l 35 846 l 67 1028 l 1040 1028 m 401 261 q 499 289 457 261 q 563 360 540 317 q 586 447 586 403 q 552 534 586 500 q 454 568 518 568 q 361 544 404 568 q 293 478 318 519 q 268 383 268 436 q 304 294 268 328 q 401 261 340 261 z "},"श":{"ha":1189,"x_min":50,"x_max":1303,"o":"m 361 178 q 443 213 413 178 q 485 313 474 249 l 697 313 q 588 75 678 160 q 344 -10 499 -10 q 128 58 207 -10 q 50 246 50 126 q 57 315 50 276 l 104 582 l 299 582 q 476 619 401 582 q 567 743 551 657 q 569 768 569 760 q 548 828 569 806 q 489 851 526 851 q 398 806 431 851 q 365 694 365 761 l 147 694 q 259 948 160 856 q 513 1040 358 1040 q 713 974 635 1040 q 790 792 790 908 q 785 728 790 757 q 635 483 756 565 q 347 400 515 400 l 293 400 l 276 303 q 272 267 272 285 q 294 201 272 225 q 361 178 315 178 m 1303 1028 l 1271 846 l 1135 846 l 986 0 l 764 0 l 946 1028 l 1303 1028 z "},"ष":{"ha":960,"x_min":35,"x_max":1074,"o":"m 1042 846 l 906 846 l 757 0 l 543 0 l 594 290 q 371 206 507 206 q 169 283 240 206 q 97 490 97 361 q 106 581 97 533 l 153 846 l 35 846 l 67 1028 l 1074 1028 l 1042 846 m 690 846 l 367 846 l 653 628 l 690 846 m 443 389 q 544 415 500 389 q 614 488 588 442 l 338 697 l 315 575 q 311 526 311 550 q 345 426 311 464 q 443 389 379 389 z "},"स":{"ha":1151,"x_min":36,"x_max":1265,"o":"m 1233 846 l 1097 846 l 949 0 l 731 0 l 804 417 l 288 417 l 263 281 q 260 254 260 261 q 279 195 260 217 q 336 174 299 174 q 407 205 381 174 q 443 290 433 236 l 651 290 q 548 69 638 150 q 315 -12 458 -12 q 116 58 186 -12 q 46 240 46 128 q 51 304 46 275 l 97 572 l 201 572 q 362 620 308 572 q 431 754 415 668 l 447 846 l 36 846 l 68 1028 l 1265 1028 l 1233 846 m 879 846 l 665 846 l 649 754 q 588 596 632 664 l 835 596 l 879 846 z "},"ह":{"ha":826,"x_min":32,"x_max":940,"o":"m 940 1028 l 908 846 l 731 846 l 714 750 l 685 594 l 444 594 q 380 578 407 594 q 347 528 353 563 q 346 514 346 524 q 374 469 346 485 q 431 472 410 472 q 587 440 522 472 q 683 353 651 407 q 715 239 715 300 q 714 214 715 222 l 504 214 q 476 274 504 249 q 399 300 449 300 q 301 263 343 300 q 247 163 258 225 q 244 129 244 140 q 273 52 244 79 q 351 25 301 25 q 435 49 399 25 q 486 107 471 72 l 694 107 q 567 -83 665 -10 q 332 -156 469 -156 q 174 -122 242 -156 q 69 -26 106 -87 q 32 114 32 35 q 38 178 32 149 q 94 316 51 256 q 201 414 136 376 q 136 538 136 460 q 207 691 136 632 q 394 750 278 750 l 506 750 l 522 846 l 49 846 l 82 1028 l 940 1028 z "},"ळ":{"ha":1329,"x_min":29,"x_max":1443,"o":"m 1126 846 l 1099 693 q 1203 603 1165 663 q 1240 461 1240 543 q 1235 396 1240 425 q 1164 226 1218 299 q 1031 113 1110 153 q 864 74 953 74 q 706 116 772 74 q 615 235 640 158 l 608 235 q 483 116 561 158 q 313 74 404 74 q 117 144 193 74 q 40 332 40 214 q 46 396 40 367 q 118 567 64 493 q 251 680 172 640 q 418 719 329 719 q 570 681 506 719 q 667 561 635 642 l 672 561 q 892 711 760 685 l 915 846 l 29 846 l 61 1028 l 1443 1028 l 1411 846 l 1126 846 m 536 424 q 505 504 536 474 q 422 535 474 535 q 305 488 353 535 q 257 367 257 440 q 289 288 257 317 q 374 260 321 260 q 488 307 440 260 q 536 424 536 354 m 1024 424 q 992 505 1024 475 q 908 535 961 535 q 792 487 839 535 q 744 367 744 439 q 776 289 744 318 q 860 260 807 260 q 976 306 928 260 q 1024 424 1024 351 z "},"क़":{"ha":1340,"x_min":35,"x_max":1454,"o":"m 844 846 l 810 644 q 899 713 846 689 q 1017 738 951 738 q 1192 666 1128 738 q 1256 482 1256 594 q 1249 410 1256 451 q 1128 183 1221 263 q 908 103 1035 103 q 815 114 858 103 l 846 285 q 881 281 858 281 q 976 317 935 281 q 1029 414 1018 353 q 1032 440 1032 433 q 1003 520 1032 489 q 924 551 974 551 q 822 512 863 551 q 768 410 782 472 l 696 0 l 486 0 l 519 188 q 296 89 436 89 q 118 160 186 89 q 50 349 50 232 q 57 419 50 378 q 176 651 82 564 q 407 738 271 738 q 526 712 478 738 q 599 640 575 686 l 635 846 l 35 846 l 67 1028 l 1454 1028 l 1422 846 l 844 846 m 560 418 q 561 438 561 425 q 531 520 561 488 q 443 553 500 553 q 324 505 374 553 q 275 385 275 457 q 308 303 275 333 q 394 272 340 272 q 503 313 460 274 q 557 406 547 353 l 560 418 m 196 -244 q 120 -215 150 -244 q 90 -142 90 -186 q 111 -67 90 -101 q 167 -11 132 -32 q 240 10 201 10 q 317 -20 288 10 q 346 -96 346 -50 q 301 -200 346 -156 q 196 -244 256 -244 z "},"ख़":{"ha":1335,"x_min":36,"x_max":1449,"o":"m 1449 1028 l 1417 846 l 1281 846 l 1132 0 l 915 0 l 954 221 q 778 154 885 154 q 736 158 756 154 q 585 36 674 82 q 390 -10 496 -10 q 148 68 235 -10 q 61 289 61 146 q 69 383 61 333 l 100 560 l 135 560 q 283 603 229 560 q 354 740 338 646 l 372 846 l 36 846 l 68 1028 l 1449 1028 m 1064 846 l 592 846 l 568 710 q 470 498 544 575 q 290 408 396 421 l 281 358 q 276 319 276 338 q 316 217 276 256 q 429 179 356 179 q 599 256 535 179 q 565 397 565 317 q 571 464 565 432 q 626 601 583 542 q 731 694 668 661 q 865 726 793 726 q 1031 657 982 726 l 1064 846 m 856 321 q 956 365 917 321 q 994 467 994 410 q 969 534 994 507 q 896 561 944 561 q 796 522 838 561 q 754 417 754 482 q 783 346 754 371 q 856 321 811 321 m 300 -339 q 224 -310 254 -339 q 194 -236 194 -281 q 215 -161 194 -196 q 271 -106 236 -126 q 344 -85 306 -85 q 421 -115 392 -85 q 450 -190 450 -144 q 405 -294 450 -250 q 300 -339 360 -339 z "},"ग़":{"ha":1132,"x_min":35,"x_max":1246,"o":"m 1246 1028 l 1214 846 l 1078 846 l 929 0 l 711 0 l 858 846 l 685 846 l 629 532 q 524 317 607 399 q 300 236 442 236 q 114 294 182 236 q 46 457 46 351 q 51 521 46 492 q 61 567 57 551 l 272 567 l 264 522 q 261 488 261 510 q 319 421 261 421 q 410 524 392 421 l 467 846 l 35 846 l 67 1028 l 1246 1028 m 236 -100 q 160 -71 190 -100 q 131 3 131 -42 q 151 78 131 43 q 207 133 172 113 q 281 154 242 154 q 357 124 328 154 q 386 49 386 94 q 341 -56 386 -11 q 236 -100 296 -100 z "},"ज़":{"ha":1194,"x_min":35,"x_max":1308,"o":"m 1276 846 l 1140 846 l 992 0 l 774 0 l 860 492 l 700 492 l 693 450 q 572 225 668 311 q 331 139 475 139 q 130 208 204 139 q 56 392 56 276 q 63 458 56 419 l 101 678 l 321 678 l 282 457 q 278 417 278 436 q 299 352 278 375 q 358 329 319 329 q 438 363 406 329 q 481 457 469 397 l 521 678 l 893 678 l 922 846 l 35 846 l 67 1028 l 1308 1028 l 1276 846 m 268 -193 q 192 -164 222 -193 q 163 -90 163 -135 q 183 -15 163 -50 q 239 40 204 19 q 313 61 274 61 q 389 31 360 61 q 418 -44 418 1 q 373 -149 418 -104 q 268 -193 328 -193 z "},"ड़":{"ha":788,"x_min":22,"x_max":901,"o":"m 417 590 q 343 572 374 590 q 313 513 313 554 q 333 474 313 486 q 386 463 353 463 l 447 463 q 626 413 556 463 q 697 265 697 363 q 692 213 697 249 q 583 35 671 99 q 344 -28 494 -28 q 112 34 201 -28 q 22 204 22 96 q 25 240 22 215 l 242 240 l 240 225 q 272 159 240 182 q 357 136 304 136 q 451 165 415 136 q 486 239 486 193 q 381 308 486 308 l 332 308 q 167 351 242 308 q 93 489 93 393 q 97 533 93 511 q 196 690 115 638 q 388 743 276 743 l 486 743 l 504 846 l 38 846 l 69 1028 l 901 1028 l 871 846 l 715 846 l 669 590 l 417 590 m 274 -360 q 198 -331 228 -360 q 168 -257 168 -301 q 189 -182 168 -217 q 244 -126 210 -147 q 318 -106 279 -106 q 394 -135 365 -106 q 424 -211 424 -165 q 378 -315 424 -271 q 274 -360 333 -360 z "},"ढ़":{"ha":911,"x_min":36,"x_max":1025,"o":"m 564 601 q 365 541 449 601 q 261 369 281 481 q 256 319 256 333 q 308 192 256 240 q 461 144 360 144 q 596 178 540 144 q 661 271 651 211 q 663 288 663 276 q 645 333 663 315 q 600 350 628 350 q 547 332 569 350 q 519 285 525 314 q 517 260 517 276 l 363 260 q 367 313 363 290 q 456 453 382 403 q 636 504 529 504 q 791 451 732 504 q 850 310 850 399 q 846 264 850 289 q 715 61 822 135 q 439 -12 608 -12 q 235 28 324 -12 q 97 143 146 68 q 47 318 47 218 q 53 389 47 356 q 140 586 74 504 q 306 710 207 668 q 519 751 404 751 l 546 751 l 563 846 l 36 846 l 68 1028 l 1025 1028 l 993 846 l 768 846 l 725 601 l 564 601 m 342 -343 q 266 -314 296 -343 q 236 -240 236 -285 q 257 -165 236 -200 q 313 -110 278 -131 q 386 -89 347 -89 q 463 -119 433 -89 q 492 -194 492 -149 q 447 -299 492 -254 q 342 -343 401 -343 z "},"फ़":{"ha":1368,"x_min":35,"x_max":1482,"o":"m 863 846 l 828 642 q 926 713 868 688 q 1056 738 985 738 q 1226 671 1165 738 q 1288 496 1288 604 q 1281 425 1288 467 q 1213 252 1263 325 q 1092 141 1164 179 q 938 103 1021 103 q 838 117 881 103 l 867 285 q 910 279 885 279 q 1006 317 967 279 q 1057 414 1046 354 q 1060 444 1060 433 q 1031 522 1060 492 q 953 551 1003 551 q 846 510 889 551 q 785 399 803 468 l 715 0 l 496 0 l 547 294 q 354 222 471 222 q 164 294 232 222 q 96 485 96 365 q 104 569 96 526 l 153 846 l 35 846 l 67 1028 l 1482 1028 l 1449 846 l 863 846 m 644 846 l 371 846 l 322 569 q 318 522 318 544 q 347 437 318 468 q 435 406 376 406 q 542 450 500 406 q 594 561 585 494 l 644 846 m 207 -104 q 131 -75 161 -104 q 101 -1 101 -46 q 122 74 101 39 q 178 129 143 108 q 251 150 213 150 q 328 120 299 150 q 357 44 357 90 q 312 -60 357 -15 q 207 -104 267 -104 z "},"ऱ":{"ha":739,"x_min":-93,"x_max":853,"o":"m 821 846 l 703 846 l 690 774 q 293 417 628 417 l 288 417 l 264 278 q 260 246 260 261 q 278 193 260 213 q 331 174 296 174 q 396 201 369 174 q 431 272 422 228 l 436 311 l 644 311 l 642 281 q 533 66 618 144 q 314 -12 449 -12 q 115 54 186 -12 q 43 228 43 121 q 49 289 43 261 l 101 592 l 242 592 q 402 638 349 592 q 472 774 456 683 l 485 846 l 36 846 l 68 1028 l 853 1028 l 821 846 m 13 -296 q -63 -267 -33 -296 q -93 -193 -93 -237 q -72 -118 -93 -153 q -17 -62 -51 -83 q 57 -42 18 -42 q 133 -72 104 -42 q 163 -147 163 -101 q 117 -251 163 -207 q 13 -296 72 -296 z "},"ं":{"ha":0,"x_min":-224,"x_max":35,"o":"m -118 1129 q -194 1159 -165 1129 q -224 1233 -224 1189 q -203 1307 -224 1272 q -147 1362 -182 1342 q -74 1382 -112 1382 q 5 1352 -25 1382 q 35 1276 35 1322 q 13 1203 35 1238 q -44 1149 -8 1169 q -118 1129 -79 1129 z "},"ँ":{"ha":0,"x_min":-401,"x_max":269,"o":"m -74 1369 q -124 1389 -104 1369 q -143 1439 -143 1408 q -112 1509 -143 1479 q -43 1539 -82 1539 q 10 1519 -10 1539 q 29 1469 29 1500 q -1 1399 29 1429 q -74 1369 -32 1369 m -104 1126 q -320 1190 -239 1126 q -401 1364 -401 1254 q -396 1419 -401 1393 l -222 1419 q -225 1396 -225 1403 q -190 1314 -225 1346 q -87 1282 -154 1282 q 35 1322 -14 1282 q 94 1419 85 1361 l 269 1419 q 151 1203 246 1281 q -104 1126 56 1126 z "},"ः":{"ha":389,"x_min":31,"x_max":358,"o":"m 208 524 q 132 553 163 524 q 101 628 101 583 q 123 701 101 667 q 179 757 144 736 q 253 778 214 778 q 329 749 300 778 q 358 674 358 719 q 338 600 358 635 q 282 544 317 565 q 208 524 247 524 m 136 122 q 60 151 90 122 q 31 225 31 181 q 51 299 31 264 q 107 353 72 333 q 181 374 142 374 q 258 344 228 374 q 288 269 288 314 q 266 197 288 231 q 210 142 244 163 q 136 122 175 122 z "},"ऽ":{"ha":829,"x_min":3,"x_max":794,"o":"m 35 247 l 365 247 q 424 265 403 247 q 446 311 446 282 q 425 363 446 338 q 357 432 404 389 q 279 508 310 475 q 226 588 249 542 q 204 688 204 633 q 208 735 204 710 q 298 883 225 832 q 478 933 371 933 l 794 933 l 761 750 l 501 750 q 447 738 469 750 q 424 692 424 725 q 445 638 424 664 q 513 572 467 613 q 592 495 561 528 q 644 417 622 463 q 667 315 667 371 q 663 268 667 293 q 571 119 646 174 q 389 65 496 65 l 3 65 l 35 247 z "},"्":{"ha":0,"x_min":-429,"x_max":-82,"o":"m -429 -76 l -212 -76 l -82 -386 l -304 -386 l -429 -76 z "},"़":{"ha":0,"x_min":-521,"x_max":-265,"o":"m -415 -365 q -491 -336 -461 -365 q -521 -262 -521 -307 q -500 -187 -521 -222 q -444 -132 -479 -153 q -371 -111 -410 -111 q -294 -141 -324 -111 q -265 -217 -265 -171 q -310 -321 -265 -276 q -415 -365 -356 -365 z "},"०":{"ha":883,"x_min":43,"x_max":854,"o":"m 58 501 q 43 342 43 413 q 119 92 43 182 q 361 1 196 1 q 681 136 564 1 q 839 501 799 271 q 854 660 854 589 q 778 909 854 819 q 536 999 701 999 q 215 865 332 999 q 58 501 99 731 m 603 501 q 536 298 579 369 q 400 226 493 226 q 306 265 333 226 q 278 372 278 303 q 292 501 278 422 q 359 703 315 632 q 496 774 403 774 q 590 736 563 774 q 617 631 617 699 q 603 501 617 578 z "},"१":{"ha":494,"x_min":64,"x_max":499,"o":"m 64 760 l 101 982 l 499 982 l 326 0 l 76 0 l 211 760 l 64 760 z "},"२":{"ha":783,"x_min":-31,"x_max":785,"o":"m 0 189 q 370 456 226 331 q 532 683 514 582 q 536 721 536 704 q 450 804 536 804 q 363 766 396 804 q 315 644 329 728 l 83 644 q 165 847 104 767 q 312 966 226 928 q 493 1004 397 1004 q 713 939 640 1004 q 785 764 785 874 q 778 696 785 735 q 622 428 754 558 q 317 203 489 299 l 704 203 l 671 11 l -31 11 l 0 189 z "},"३":{"ha":797,"x_min":19,"x_max":792,"o":"m 506 1025 q 717 961 643 1025 q 792 793 792 897 q 786 739 792 775 q 711 595 771 650 q 574 525 651 540 l 572 518 q 683 442 642 494 q 725 308 725 390 q 719 244 725 274 q 606 60 700 129 q 357 -10 511 -10 q 107 64 194 -10 q 19 281 19 138 q 22 328 19 294 l 254 328 q 251 297 251 306 q 281 217 251 246 q 371 188 310 188 q 452 213 419 188 q 492 281 485 239 q 494 310 494 300 q 339 418 494 418 l 294 418 l 328 611 l 372 611 q 550 719 529 608 q 551 744 551 728 q 528 806 551 785 q 465 828 506 828 q 380 794 415 828 q 333 703 344 760 l 101 703 q 238 942 132 858 q 506 1025 343 1025 z "},"४":{"ha":894,"x_min":6,"x_max":864,"o":"m 6 181 l 40 379 l 597 994 l 853 994 l 746 388 l 864 388 l 826 181 l 710 181 l 678 0 l 438 0 l 469 181 l 6 181 m 583 719 l 283 388 l 525 388 l 583 719 z "},"५":{"ha":831,"x_min":53,"x_max":840,"o":"m 804 797 l 363 797 l 326 599 q 419 651 364 632 q 535 669 474 669 q 719 599 658 669 q 781 418 781 529 q 774 339 781 383 q 640 90 746 182 q 374 -3 535 -3 q 137 67 221 -3 q 53 257 53 138 q 57 311 53 282 l 289 311 q 313 233 286 264 q 397 203 340 203 q 495 241 458 203 q 543 343 532 279 q 547 381 547 364 q 519 456 547 429 q 440 483 492 483 q 362 463 397 483 q 310 411 326 443 l 78 411 l 183 1006 l 840 1006 l 804 797 z "},"६":{"ha":843,"x_min":57,"x_max":814,"o":"m 590 711 q 565 801 589 771 q 488 832 542 832 q 363 758 408 832 q 293 529 318 685 q 390 619 326 586 q 529 651 453 651 q 714 588 647 651 q 781 404 781 524 q 772 317 781 363 q 645 80 747 169 q 386 -10 543 -10 q 57 336 57 -10 q 75 514 57 413 q 227 899 121 775 q 525 1022 333 1022 q 744 947 675 1022 q 814 750 814 871 q 813 711 814 724 l 590 711 m 274 306 q 304 224 274 254 q 394 194 335 194 q 509 237 465 194 q 553 357 553 279 q 523 440 553 411 q 440 468 493 468 q 323 426 372 468 q 274 306 274 383 z "},"७":{"ha":683,"x_min":-8,"x_max":764,"o":"m 732 815 l 238 0 l -8 0 l 486 788 l 69 788 l 104 992 l 764 992 l 732 815 z "},"८":{"ha":864,"x_min":26,"x_max":849,"o":"m 136 775 q 199 901 149 842 q 337 998 250 961 q 539 1035 424 1035 q 710 1001 640 1035 q 815 914 781 968 q 849 794 849 860 q 844 747 849 771 q 665 544 821 607 q 801 331 801 479 q 796 267 801 296 q 651 54 771 129 q 351 -21 532 -21 q 117 49 208 -21 q 26 244 26 118 q 32 310 26 281 q 240 544 63 474 q 159 613 188 568 q 131 721 131 658 q 136 775 131 736 m 361 694 q 388 627 361 650 q 463 604 415 604 q 556 633 518 604 q 604 718 594 663 q 607 746 607 738 q 579 816 607 792 q 504 840 551 840 q 402 801 443 840 q 361 694 361 763 m 261 283 q 294 204 261 233 q 388 175 328 175 q 513 219 464 175 q 561 333 561 263 q 526 414 561 385 q 435 443 492 443 q 311 401 361 443 q 261 283 261 358 z "},"९":{"ha":804,"x_min":39,"x_max":801,"o":"m 265 301 q 365 181 263 181 q 492 254 446 181 q 561 483 538 328 q 465 394 529 428 q 326 361 401 361 q 141 425 208 361 q 74 608 74 489 q 82 696 74 650 q 213 933 107 843 q 479 1022 319 1022 q 727 937 653 1022 q 801 696 801 851 q 782 499 801 607 q 703 219 753 329 q 566 49 653 108 q 343 -10 479 -10 q 166 35 235 -10 q 68 149 97 79 q 43 301 39 219 l 265 301 m 581 710 q 551 789 581 760 q 461 818 521 818 q 357 783 399 818 q 304 682 315 749 q 301 647 301 669 q 332 571 301 597 q 415 544 363 544 q 531 588 482 544 q 581 710 581 631 z "},"ॐ":{"ha":1489,"x_min":17,"x_max":1381,"o":"m 874 1251 q 823 1272 843 1251 q 803 1322 803 1292 q 833 1392 803 1363 q 903 1421 864 1421 q 954 1401 935 1421 q 974 1351 974 1382 q 944 1281 974 1310 q 874 1251 914 1251 m 846 1008 q 624 1073 703 1008 q 546 1244 546 1138 q 551 1301 546 1275 l 724 1301 q 722 1278 722 1293 q 758 1196 722 1228 q 861 1164 794 1164 q 983 1203 936 1164 q 1042 1301 1031 1242 l 1217 1301 q 1101 1085 1196 1163 q 846 1008 1006 1008 m 1128 949 q 1381 710 1381 949 q 1371 604 1381 657 l 1342 436 q 1190 128 1306 233 q 892 22 1075 22 q 753 36 826 22 l 785 217 q 885 207 850 207 q 1054 267 999 207 q 1131 443 1110 328 l 1164 633 q 1168 682 1168 661 q 1094 764 1168 764 q 1019 731 1046 764 q 983 644 993 699 q 926 471 964 536 q 820 375 888 406 q 643 342 753 344 q 638 288 643 324 q 521 89 615 164 q 296 14 426 14 q 91 78 165 14 q 17 249 17 142 q 22 307 17 281 l 226 307 q 225 286 225 300 q 249 225 225 249 q 317 201 274 201 q 399 231 365 201 q 442 310 433 261 q 443 331 443 317 q 416 398 443 372 q 332 424 389 424 l 269 424 l 301 607 l 364 607 q 464 642 425 607 q 503 731 503 678 q 481 788 503 767 q 421 808 458 808 q 344 783 376 808 q 304 715 313 758 l 103 715 q 166 861 117 797 q 291 960 215 925 q 458 994 367 994 q 642 940 575 994 q 708 789 708 885 q 704 738 708 765 q 642 603 690 660 q 519 525 594 547 l 518 519 q 539 513 525 518 l 621 513 q 729 541 693 513 q 781 647 765 569 q 888 872 807 796 q 1128 949 969 949 z "},"॰":{"ha":661,"x_min":88,"x_max":574,"o":"m 569 467 q 474 299 550 364 q 293 235 397 235 q 144 286 200 235 q 88 422 88 338 q 92 467 88 444 q 190 635 111 569 q 374 700 268 700 q 519 649 465 700 q 574 513 574 597 q 569 467 574 492 m 222 446 q 247 387 222 410 q 315 364 272 364 q 394 392 360 364 q 436 467 428 421 q 438 486 438 474 q 414 548 438 525 q 351 571 390 571 q 260 535 297 571 q 222 446 222 500 z "},"।":{"ha":478,"x_min":114,"x_max":511,"o":"m 331 0 l 114 0 l 294 1029 l 511 1029 l 331 0 z "},"॥":{"ha":857,"x_min":114,"x_max":890,"o":"m 331 0 l 114 0 l 294 1029 l 511 1029 l 331 0 m 710 0 l 492 0 l 672 1029 l 890 1029 l 710 0 z "},"₨":{"ha":1624,"x_min":-4,"x_max":1579,"o":"m 878 671 q 787 489 858 564 q 599 386 715 414 l 764 0 l 500 0 l 354 371 l 300 371 l 235 0 l -4 0 l 169 982 l 575 982 q 805 915 726 982 q 883 735 883 847 q 878 671 883 700 m 1122 543 q 1153 492 1117 508 q 1272 458 1190 475 q 1408 424 1356 442 q 1500 367 1461 406 q 1539 265 1539 329 q 1536 226 1539 240 q 1479 106 1524 160 q 1361 22 1435 53 q 1193 -10 1288 -10 q 949 60 1035 -10 q 865 258 863 129 l 1099 258 q 1130 191 1096 215 q 1222 167 1164 167 q 1290 184 1265 167 q 1322 232 1315 201 q 1290 285 1328 268 q 1169 319 1253 303 q 1036 353 1089 336 q 946 408 983 371 q 908 510 908 446 q 952 647 908 585 q 1076 747 996 710 q 1264 785 1157 785 q 1499 712 1419 785 q 1579 517 1578 639 l 1346 517 q 1313 584 1344 560 q 1229 608 1282 608 q 1156 591 1185 608 q 1122 543 1128 574 m 635 657 q 638 686 638 676 q 608 757 638 732 q 518 782 579 782 l 372 782 l 328 533 l 475 533 q 585 565 546 533 q 635 657 624 596 z "},"₹":{"ha":835,"x_min":56,"x_max":890,"o":"m 744 825 l 728 733 l 846 733 l 822 597 l 699 597 q 292 344 615 344 l 279 281 q 275 243 275 260 q 353 164 275 164 q 425 193 399 164 q 463 283 451 222 l 683 283 q 563 65 653 144 q 332 -14 472 -14 q 56 226 56 -14 q 64 318 56 268 l 97 499 q 315 506 243 499 q 424 533 388 513 q 476 597 460 554 l 94 597 l 119 733 l 506 733 l 522 825 l 135 825 l 163 982 l 890 982 l 863 825 l 744 825 z "},"‌":{"ha":0,"x_min":-32,"x_max":33,"o":"m -32 1126 l 33 1126 l 33 -319 l -32 -319 l -32 1126 z "},"‍":{"ha":0,"x_min":-178,"x_max":178,"o":"m 32 882 l 32 -319 l -33 -319 l -33 882 l -129 781 l -175 826 l -46 956 l -178 1088 l -132 1133 l 0 1001 l 133 1133 l 178 1089 l 44 956 l 178 824 l 132 778 l 32 882 z "},"◌":{"ha":904,"x_min":69,"x_max":835,"o":"m 418 633 q 375 649 392 633 q 358 692 358 665 q 375 734 358 718 q 418 750 392 750 q 461 734 444 750 q 478 692 478 718 q 461 649 478 665 q 418 633 444 633 m 586 613 q 543 628 560 613 q 526 671 526 644 q 543 713 526 697 q 586 729 560 729 q 629 713 613 729 q 646 671 646 697 q 629 628 646 644 q 586 613 613 613 m 256 575 q 213 591 229 575 q 196 633 196 607 q 213 676 196 660 q 256 692 229 692 q 299 676 282 692 q 315 633 315 660 q 299 591 315 607 q 256 575 282 575 m 714 510 q 671 526 688 510 q 654 568 654 542 q 671 610 654 594 q 714 626 688 626 q 757 610 740 626 q 774 568 774 594 q 757 526 774 542 q 714 510 740 510 m 150 438 q 107 453 124 438 q 90 496 90 469 q 107 538 90 522 q 150 554 124 554 q 193 538 176 554 q 210 496 210 522 q 193 453 210 469 q 150 438 176 438 m 775 351 q 732 367 749 351 q 715 410 715 383 q 732 452 715 436 q 775 468 749 468 q 818 452 801 468 q 835 410 835 436 q 818 367 835 383 q 775 351 801 351 m 129 269 q 86 285 103 269 q 69 328 69 301 q 86 370 69 354 q 129 386 103 386 q 172 370 156 386 q 189 328 189 354 q 172 285 189 301 q 129 269 156 269 m 761 185 q 718 201 735 185 q 701 243 701 217 q 718 285 701 269 q 761 301 735 301 q 804 285 788 301 q 821 243 821 269 q 804 201 821 217 q 761 185 788 185 m 192 113 q 149 128 165 113 q 132 171 132 144 q 149 213 132 197 q 192 229 165 229 q 235 213 218 229 q 251 171 251 197 q 235 128 251 144 q 192 113 218 113 m 660 51 q 617 67 633 51 q 600 110 600 83 q 617 152 600 136 q 660 168 633 168 q 703 152 686 168 q 719 110 719 136 q 703 67 719 83 q 660 51 686 51 m 328 7 q 285 23 301 7 q 268 65 268 39 q 285 108 268 92 q 328 124 301 124 q 371 108 354 124 q 388 65 388 92 q 371 23 388 39 q 328 7 354 7 m 500 -12 q 457 3 474 -12 q 440 46 440 19 q 457 88 440 72 q 500 104 474 104 q 543 88 526 104 q 560 46 560 72 q 543 3 560 19 q 500 -12 526 -12 z "},"!":{"ha":531,"x_min":63,"x_max":499,"o":"m 499 1031 l 349 351 l 147 351 l 238 1031 l 499 1031 m 353 238 l 310 0 l 63 0 l 106 238 l 353 238 z "},"\"":{"ha":579,"x_min":51,"x_max":546,"o":"m 282 1113 l 211 806 l 51 806 l 89 1113 l 282 1113 m 546 1113 l 475 806 l 315 806 l 353 1113 l 546 1113 z "},"#":{"ha":1231,"x_min":-28,"x_max":1260,"o":"m 1000 600 l 935 432 l 1103 432 l 1065 215 l 850 215 l 767 0 l 544 0 l 628 215 l 396 215 l 313 0 l 92 0 l 175 215 l -28 215 l 10 432 l 260 432 l 325 600 l 128 600 l 167 817 l 410 817 l 492 1028 l 713 1028 l 631 817 l 863 817 l 944 1028 l 1167 1028 l 1085 817 l 1260 817 l 1221 600 l 1000 600 m 778 600 l 546 600 l 481 432 l 713 432 l 778 600 z "},"$":{"ha":879,"x_min":18,"x_max":850,"o":"m 592 706 q 576 774 593 747 q 522 810 558 800 l 483 593 l 525 579 q 665 525 611 550 q 758 452 719 500 q 796 331 796 404 q 790 276 796 315 q 724 133 776 199 q 582 29 671 68 q 378 -10 493 -10 l 358 -121 l 299 -121 l 318 -7 q 99 74 181 4 q 18 260 18 143 q 19 296 18 283 l 272 296 q 290 221 269 251 q 351 178 310 190 l 390 400 l 360 410 q 219 461 274 436 q 124 534 164 486 q 85 657 85 582 q 90 714 85 686 q 163 862 106 799 q 308 960 221 925 q 496 997 394 994 l 515 1111 l 575 1111 l 554 996 q 774 917 697 986 q 850 735 850 849 q 849 706 850 715 l 592 706 m 347 724 q 346 707 346 718 q 367 653 346 675 q 428 614 388 632 l 463 815 q 385 789 415 813 q 347 724 354 765 m 536 271 q 538 288 538 276 q 446 381 538 346 l 410 172 q 494 201 461 174 q 536 271 528 228 z "},"%":{"ha":1117,"x_min":78,"x_max":1039,"o":"m 356 999 q 498 951 444 999 q 551 818 551 904 q 547 765 551 793 q 452 593 526 654 q 275 532 378 532 q 131 578 185 532 q 78 711 78 625 q 83 765 78 739 q 178 938 103 876 q 356 999 253 999 m 1028 985 l 318 0 l 90 0 l 800 985 l 1028 985 m 242 765 q 239 738 239 746 q 254 690 239 707 q 297 674 269 674 q 357 698 332 674 q 390 765 382 722 q 393 790 393 782 q 376 840 393 822 q 331 857 360 857 q 272 833 296 857 q 242 765 249 808 m 844 454 q 986 408 933 454 q 1039 276 1039 363 q 1033 221 1039 247 q 940 48 1014 110 q 764 -14 867 -14 q 622 34 675 -14 q 568 168 568 82 q 572 221 568 194 q 667 393 592 332 q 844 454 742 454 m 726 193 q 742 144 726 161 q 786 128 757 128 q 845 152 821 128 q 876 221 869 176 q 879 247 879 240 q 863 295 879 278 q 819 313 847 313 q 753 280 779 313 q 726 193 726 247 z "},"&":{"ha":963,"x_min":0,"x_max":874,"o":"m 635 0 l 543 140 q 500 94 522 115 q 401 19 461 47 q 269 -10 340 -10 q 70 57 140 -10 q 0 232 0 124 q 6 294 0 267 q 104 492 26 415 q 285 582 182 569 l 271 614 q 249 714 249 668 q 289 847 249 783 q 405 951 329 911 q 582 992 481 992 q 768 938 708 992 q 838 799 828 885 q 840 757 840 785 q 829 664 840 713 l 608 664 l 615 715 q 603 774 619 754 q 550 794 586 794 q 498 776 519 794 q 472 731 476 758 q 471 713 471 724 q 477 678 471 694 q 499 636 483 663 l 874 0 l 635 0 m 439 315 q 410 383 439 357 q 338 408 381 408 q 254 381 289 408 q 210 301 219 353 q 208 279 208 294 q 235 213 208 238 q 307 188 263 188 q 400 224 361 188 q 439 315 439 261 z "},"'":{"ha":318,"x_min":53,"x_max":285,"o":"m 285 1113 l 213 806 l 53 806 l 89 1113 l 285 1113 z "},"(":{"ha":571,"x_min":17,"x_max":788,"o":"m 36 558 q 223 1034 82 822 q 557 1378 364 1246 l 788 1378 l 783 1354 q 436 997 565 1194 q 264 558 307 799 q 246 365 246 450 q 503 -237 246 14 l 499 -260 l 269 -260 q 85 1 153 -156 q 17 351 17 157 q 36 558 17 446 z "},")":{"ha":574,"x_min":-214,"x_max":557,"o":"m 539 560 q 351 83 492 294 q 17 -260 210 -129 l -214 -260 l -211 -237 q 310 558 226 78 q 328 753 328 657 q 71 1354 328 1103 l 74 1378 l 306 1378 q 490 1116 422 1274 q 557 763 557 958 q 539 560 557 663 z "},"*":{"ha":733,"x_min":92,"x_max":653,"o":"m 600 965 l 653 824 l 471 764 l 632 707 l 522 560 l 406 682 l 408 500 l 246 500 l 311 682 l 151 557 l 92 707 l 274 767 l 114 824 l 219 965 l 342 846 l 338 1028 l 503 1028 l 435 846 l 600 965 z "},"+":{"ha":779,"x_min":15,"x_max":764,"o":"m 725 376 l 485 376 l 442 132 l 213 132 l 256 376 l 15 376 l 54 594 l 294 594 l 338 840 l 567 840 l 524 594 l 764 594 l 725 376 z "},",":{"ha":329,"x_min":24,"x_max":276,"o":"m 260 147 q 276 38 276 97 q 249 -100 276 -35 q 166 -207 222 -165 q 24 -249 110 -249 l 39 -161 q 97 -144 76 -161 q 125 -81 117 -126 l 128 -67 l 26 -67 l 64 147 l 260 147 z "},"-":{"ha":754,"x_min":81,"x_max":728,"o":"m 728 586 l 693 389 l 81 389 l 115 586 l 728 586 z "},".":{"ha":328,"x_min":19,"x_max":308,"o":"m 308 238 l 265 0 l 19 0 l 61 238 l 308 238 z "},"/":{"ha":540,"x_min":-167,"x_max":714,"o":"m 714 1319 l 63 -261 l -167 -261 l 486 1319 l 714 1319 z "},":":{"ha":385,"x_min":6,"x_max":393,"o":"m 393 803 l 351 565 l 104 565 l 146 803 l 393 803 m 293 238 l 251 0 l 6 0 l 46 238 l 293 238 z "},";":{"ha":500,"x_min":85,"x_max":453,"o":"m 453 793 l 410 556 l 164 556 l 206 793 l 453 793 m 321 147 q 338 38 338 97 q 310 -100 338 -35 q 227 -207 283 -165 q 85 -249 171 -249 l 100 -161 q 158 -144 138 -161 q 186 -81 178 -126 l 189 -67 l 88 -67 l 125 147 l 321 147 z "},"<":{"ha":650,"x_min":35,"x_max":669,"o":"m 264 181 l 35 486 l 372 794 l 669 794 l 332 486 l 561 181 l 264 181 z "},"=":{"ha":849,"x_min":-15,"x_max":863,"o":"m 863 771 l 825 554 l 47 554 l 85 771 l 863 771 m 801 417 l 764 201 l -15 201 l 22 417 l 801 417 z "},">":{"ha":650,"x_min":-19,"x_max":615,"o":"m 89 794 l 386 794 l 615 486 l 278 181 l -19 181 l 318 486 l 89 794 z "},"?":{"ha":728,"x_min":53,"x_max":740,"o":"m 461 1053 q 666 992 592 1053 q 740 818 740 932 q 735 754 740 783 q 611 551 711 624 q 369 475 511 478 l 347 351 l 124 351 l 174 628 l 267 628 q 428 656 367 628 q 501 753 489 683 q 503 776 503 761 q 481 837 503 815 q 418 858 458 858 q 338 829 368 858 q 296 753 307 800 l 71 753 q 134 906 85 838 q 267 1013 183 974 q 461 1053 350 1053 m 340 238 l 299 0 l 53 0 l 94 238 l 340 238 z "},"@":{"ha":1765,"x_min":36,"x_max":1758,"o":"m 1117 1142 q 1462 1083 1318 1142 q 1682 909 1606 1024 q 1758 631 1758 794 q 1746 494 1758 565 q 1640 240 1721 356 q 1449 56 1560 124 q 1224 -11 1338 -11 q 1069 33 1126 -11 q 1014 167 1013 76 q 701 -11 889 -11 q 526 56 590 -11 q 461 239 461 124 q 481 371 461 304 q 589 584 511 490 q 776 731 667 678 q 1006 783 885 783 q 1215 722 1138 783 q 1293 549 1293 661 q 1274 431 1293 490 l 1233 301 q 1222 244 1222 264 q 1236 208 1222 218 q 1278 197 1250 197 q 1367 230 1321 197 q 1449 328 1413 263 q 1501 486 1485 393 q 1510 583 1510 536 q 1392 851 1510 754 q 1047 947 1275 947 q 678 864 840 947 q 414 638 515 781 q 282 318 313 496 q 271 201 271 254 q 395 -86 271 17 q 768 -187 519 -189 l 690 -381 q 203 -236 369 -376 q 36 160 36 -96 q 51 318 36 231 q 253 756 96 569 q 638 1042 410 943 q 1117 1142 865 1142 m 821 197 q 954 249 890 197 q 1042 403 1018 301 q 1050 465 1050 439 q 1017 549 1050 522 q 926 576 983 576 q 794 525 856 576 q 708 375 732 474 q 700 314 700 342 q 734 226 700 256 q 821 197 768 197 z "}}}
